<mxfile host="app.diagrams.net" agent="Mozilla/5.0 (Windows NT 10.0; Win64; x64) AppleWebKit/537.36 (KHTML, like Gecko) Chrome/133.0.0.0 Safari/537.36" version="26.0.6">
  <diagram name="第 1 页" id="mn6RYeKoPNetmS4WnlI6">
    <mxGraphModel dx="1298" dy="869" grid="1" gridSize="10" guides="1" tooltips="1" connect="1" arrows="1" fold="1" page="1" pageScale="1" pageWidth="827" pageHeight="1169" math="0" shadow="0">
      <root>
        <mxCell id="0" />
        <mxCell id="1" parent="0" />
        <mxCell id="WYW3W1F3zbaIfgDrCpFY-5" value="" style="edgeStyle=orthogonalEdgeStyle;rounded=0;orthogonalLoop=1;jettySize=auto;html=1;" edge="1" parent="1" source="WYW3W1F3zbaIfgDrCpFY-1" target="WYW3W1F3zbaIfgDrCpFY-2">
          <mxGeometry relative="1" as="geometry" />
        </mxCell>
        <mxCell id="WYW3W1F3zbaIfgDrCpFY-1" value="满度修正实验" style="rounded=0;whiteSpace=wrap;html=1;" vertex="1" parent="1">
          <mxGeometry x="310" y="90" width="120" height="30" as="geometry" />
        </mxCell>
        <mxCell id="WYW3W1F3zbaIfgDrCpFY-4" value="" style="edgeStyle=orthogonalEdgeStyle;rounded=0;orthogonalLoop=1;jettySize=auto;html=1;entryX=0.5;entryY=0;entryDx=0;entryDy=0;" edge="1" parent="1" source="WYW3W1F3zbaIfgDrCpFY-2" target="WYW3W1F3zbaIfgDrCpFY-9">
          <mxGeometry relative="1" as="geometry">
            <mxPoint x="420" y="270" as="targetPoint" />
          </mxGeometry>
        </mxCell>
        <mxCell id="WYW3W1F3zbaIfgDrCpFY-2" value="读取装置和标准表的数值（应该多次同时读取数据，减小误差）" style="rounded=0;whiteSpace=wrap;html=1;" vertex="1" parent="1">
          <mxGeometry x="285" y="170" width="170" height="60" as="geometry" />
        </mxCell>
        <mxCell id="WYW3W1F3zbaIfgDrCpFY-7" value="" style="edgeStyle=orthogonalEdgeStyle;rounded=0;orthogonalLoop=1;jettySize=auto;html=1;" edge="1" parent="1" source="WYW3W1F3zbaIfgDrCpFY-3" target="WYW3W1F3zbaIfgDrCpFY-6">
          <mxGeometry relative="1" as="geometry" />
        </mxCell>
        <mxCell id="WYW3W1F3zbaIfgDrCpFY-8" style="edgeStyle=orthogonalEdgeStyle;rounded=0;orthogonalLoop=1;jettySize=auto;html=1;exitX=1;exitY=0.5;exitDx=0;exitDy=0;entryX=1;entryY=0.5;entryDx=0;entryDy=0;" edge="1" parent="1" source="WYW3W1F3zbaIfgDrCpFY-3" target="WYW3W1F3zbaIfgDrCpFY-2">
          <mxGeometry relative="1" as="geometry">
            <mxPoint x="620" y="140" as="targetPoint" />
            <mxPoint x="500" y="420" as="sourcePoint" />
          </mxGeometry>
        </mxCell>
        <mxCell id="WYW3W1F3zbaIfgDrCpFY-3" value="满足误差限值" style="rhombus;whiteSpace=wrap;html=1;" vertex="1" parent="1">
          <mxGeometry x="275" y="388" width="190" height="80" as="geometry" />
        </mxCell>
        <mxCell id="WYW3W1F3zbaIfgDrCpFY-6" value="保存装置读数，标准表读数，修正参数" style="whiteSpace=wrap;html=1;" vertex="1" parent="1">
          <mxGeometry x="310" y="498" width="120" height="60" as="geometry" />
        </mxCell>
        <mxCell id="WYW3W1F3zbaIfgDrCpFY-10" value="" style="edgeStyle=orthogonalEdgeStyle;rounded=0;orthogonalLoop=1;jettySize=auto;html=1;" edge="1" parent="1" source="WYW3W1F3zbaIfgDrCpFY-9" target="WYW3W1F3zbaIfgDrCpFY-3">
          <mxGeometry relative="1" as="geometry" />
        </mxCell>
        <mxCell id="WYW3W1F3zbaIfgDrCpFY-9" value="读取标准表中的修正参数" style="rounded=0;whiteSpace=wrap;html=1;" vertex="1" parent="1">
          <mxGeometry x="310" y="280" width="120" height="60" as="geometry" />
        </mxCell>
      </root>
    </mxGraphModel>
  </diagram>
</mxfile>
